<?xml version="1.0" encoding="UTF-8" standalone="no"?>
<!DOCTYPE svg PUBLIC "-//W3C//DTD SVG 1.1//EN" "http://www.w3.org/Graphics/SVG/1.1/DTD/svg11.dtd">
<svg version="1.1" xmlns="http://www.w3.org/2000/svg" xmlns:xlink="http://www.w3.org/1999/xlink" preserveAspectRatio="xMidYMid meet" viewBox="0 0 38 32" width="38" height="32"><defs><path d="M6.04 16.69L4.87 14.5L4.87 16.12L4.88 16.7L4.92 17.28L4.97 17.86L5.06 18.43L5.16 18.99L5.29 19.55L5.44 20.1L5.62 20.64L5.81 21.18L6.03 21.71L6.27 22.22L6.53 22.73L6.82 23.23L7.12 23.71L7.44 24.19L7.79 24.65L8.15 25.1L8.54 25.53L8.94 25.95L9.36 26.35L9.8 26.74L10.24 27.1L10.7 27.45L11.18 27.77L11.66 28.07L12.16 28.35L12.66 28.61L13.18 28.85L13.71 29.07L14.24 29.27L14.78 29.44L15.33 29.59L15.89 29.72L16.45 29.83L17.02 29.91L17.6 29.97L18.18 30L18.76 30.02L19.34 30L19.92 29.97L20.49 29.91L21.06 29.83L21.63 29.72L22.18 29.59L22.74 29.44L23.28 29.27L23.82 29.07L24.34 28.85L24.86 28.61L25.37 28.35L25.87 28.07L26.35 27.77L26.83 27.44L27.29 27.1L27.73 26.73L28.17 26.35L28.59 25.95L29.99 27.35L29.51 27.81L29.01 28.25L28.5 28.67L27.97 29.06L27.43 29.43L26.87 29.78L26.31 30.1L25.73 30.4L25.14 30.67L24.54 30.92L23.93 31.14L23.31 31.34L22.68 31.52L22.04 31.66L21.4 31.78L20.75 31.88L20.09 31.95L19.43 31.99L18.76 32L18.1 31.99L17.44 31.95L16.78 31.88L16.13 31.79L15.49 31.67L14.85 31.52L14.22 31.35L13.6 31.15L12.99 30.92L12.38 30.67L11.79 30.4L11.21 30.1L10.64 29.78L10.09 29.43L9.55 29.06L9.02 28.67L8.51 28.25L8.01 27.81L7.54 27.35L7.07 26.87L6.63 26.37L6.22 25.86L5.82 25.33L5.45 24.79L5.11 24.24L4.79 23.67L4.49 23.09L4.21 22.5L3.96 21.9L3.74 21.29L3.54 20.67L3.37 20.04L3.22 19.41L3.1 18.76L3.01 18.11L2.94 17.45L2.9 16.79L2.89 16.12L2.89 14.5L1.72 16.69L-0.09 15.56L3.12 12.16L4.64 12.16L7.85 15.56L6.04 16.69ZM21.7 8.23L22.24 8.39L22.75 8.61L23.23 8.88L23.67 9.2L24.07 9.56L24.44 9.97L24.75 10.41L25.02 10.89L25.24 11.4L25.4 11.93L25.49 12.49L25.53 13.07L25.49 13.65L25.4 14.21L25.24 14.74L25.02 15.25L24.75 15.73L24.44 16.17L24.07 16.57L23.67 16.94L23.22 17.25L22.75 17.52L22.24 17.74L21.7 17.89L21.15 17.99L20.57 18.02L16.6 18.02L16.6 20.01L22.55 20.01L22.55 21.99L16.6 21.99L16.6 24.97L14.61 24.97L14.61 21.99L12.63 21.99L12.63 20.01L14.61 20.01L14.61 18.02L12.63 18.02L12.63 16.05L14.61 16.05L14.61 8.1L20.57 8.1L21.15 8.14L21.7 8.23ZM20.09 0.05L20.74 0.12L21.39 0.21L22.04 0.33L22.67 0.48L23.3 0.65L23.93 0.85L24.54 1.08L25.14 1.33L25.73 1.6L26.31 1.9L26.88 2.22L27.44 2.57L27.98 2.94L28.5 3.33L29.02 3.75L29.51 4.19L29.99 4.65L30.45 5.13L30.89 5.63L31.31 6.14L31.7 6.67L32.07 7.21L32.42 7.76L32.74 8.33L33.04 8.91L33.31 9.5L33.56 10.1L33.78 10.71L33.98 11.33L34.15 11.96L34.3 12.59L34.42 13.24L34.52 13.89L34.58 14.55L34.62 15.21L34.64 15.88L34.64 17.5L35.8 15.31L37.61 16.44L34.4 19.84L32.89 19.84L29.68 16.44L31.49 15.31L32.65 17.5L32.65 15.88L32.64 15.3L32.61 14.72L32.55 14.14L32.47 13.57L32.36 13.01L32.23 12.45L32.08 11.9L31.91 11.36L31.71 10.82L31.49 10.29L31.25 9.78L30.99 9.27L30.71 8.77L30.4 8.29L30.08 7.81L29.74 7.35L29.37 6.9L28.99 6.47L28.59 6.05L28.16 5.65L27.73 5.26L27.28 4.9L26.82 4.55L26.35 4.23L25.86 3.93L25.37 3.65L24.86 3.39L24.34 3.15L23.82 2.93L23.28 2.73L22.74 2.56L22.19 2.41L21.63 2.28L21.07 2.17L20.5 2.09L19.93 2.03L19.35 2L18.76 1.98L18.18 2L17.6 2.03L17.03 2.09L16.46 2.17L15.9 2.28L15.34 2.41L14.79 2.56L14.24 2.73L13.71 2.93L13.18 3.15L12.66 3.39L12.15 3.65L11.66 3.93L11.17 4.23L10.7 4.56L10.24 4.9L9.79 5.27L9.36 5.65L8.94 6.05L7.54 4.65L8.01 4.19L8.51 3.75L9.02 3.33L9.55 2.94L10.09 2.57L10.64 2.22L11.21 1.9L11.79 1.6L12.38 1.33L12.99 1.08L13.6 0.85L14.22 0.65L14.85 0.48L15.49 0.33L16.13 0.21L16.78 0.12L17.44 0.05L18.1 0.01L18.76 0L19.43 0.01L20.09 0.05ZM16.77 16.05L20.74 16.05L21.9 15.81L22.84 15.17L23.48 14.23L23.71 13.07L23.48 11.91L22.84 10.96L21.9 10.32L20.74 10.09L16.77 10.09L16.77 16.05Z" id="aiLSjFZS6"></path></defs><g><g><g><use xlink:href="#aiLSjFZS6" opacity="1" fill="#00b956" fill-opacity="1"></use><g><use xlink:href="#aiLSjFZS6" opacity="1" fill-opacity="0" stroke="#000000" stroke-width="1" stroke-opacity="0"></use></g></g></g></g></svg>
