<?xml version="1.0" encoding="UTF-8" standalone="no"?>
<!DOCTYPE svg PUBLIC "-//W3C//DTD SVG 1.1//EN" "http://www.w3.org/Graphics/SVG/1.1/DTD/svg11.dtd">
<svg version="1.1" xmlns="http://www.w3.org/2000/svg" xmlns:xlink="http://www.w3.org/1999/xlink" preserveAspectRatio="xMidYMid meet" viewBox="0 0 40 40" width="40" height="40"><defs><path d="M22.6 0.17L23.86 0.38L25.1 0.66L26.3 1.02L27.48 1.46L28.62 1.96L29.72 2.54L30.78 3.17L31.79 3.87L32.76 4.63L33.68 5.45L34.55 6.32L35.37 7.24L36.13 8.21L36.83 9.22L37.46 10.28L38.04 11.38L38.54 12.52L38.98 13.7L39.34 14.9L39.62 16.14L39.83 17.4L39.96 18.69L40 20L39.96 21.31L39.83 22.6L39.62 23.86L39.34 25.1L38.98 26.3L38.54 27.48L38.04 28.62L37.46 29.72L36.83 30.78L36.13 31.79L35.37 32.76L34.55 33.68L33.68 34.55L32.76 35.37L31.79 36.13L30.78 36.83L29.72 37.46L28.62 38.04L27.48 38.54L26.3 38.98L25.1 39.34L23.86 39.62L22.6 39.83L21.31 39.96L20 40L18.69 39.96L17.4 39.83L16.14 39.62L14.9 39.34L13.7 38.98L12.52 38.54L11.38 38.04L10.28 37.46L9.22 36.83L8.21 36.13L7.24 35.37L6.32 34.55L5.45 33.68L4.63 32.76L3.87 31.79L3.17 30.78L2.54 29.72L1.96 28.62L1.46 27.48L1.02 26.3L0.66 25.1L0.38 23.86L0.17 22.6L0.04 21.31L0 20L0.04 18.69L0.17 17.4L0.38 16.14L0.66 14.9L1.02 13.7L1.46 12.52L1.96 11.38L2.54 10.28L3.17 9.22L3.87 8.21L4.63 7.24L5.45 6.32L6.32 5.45L7.24 4.63L8.21 3.87L9.22 3.17L10.28 2.54L11.38 1.96L12.52 1.46L13.7 1.02L14.9 0.66L16.14 0.38L17.4 0.17L18.69 0.04L20 0L21.31 0.04L22.6 0.17ZM17.3 2.71L16 2.96L14.73 3.31L13.51 3.76L12.32 4.29L11.19 4.9L10.1 5.59L9.07 6.36L8.1 7.2L7.2 8.1L6.36 9.07L5.59 10.1L4.9 11.19L4.29 12.32L3.76 13.51L3.31 14.73L2.96 16L2.71 17.3L2.55 18.64L2.5 20L2.55 21.36L2.71 22.7L2.96 24L3.31 25.27L3.76 26.49L4.29 27.68L4.9 28.81L5.59 29.9L6.36 30.93L7.2 31.9L8.1 32.8L9.07 33.64L10.1 34.41L11.19 35.1L12.32 35.71L13.51 36.24L14.73 36.69L16 37.04L17.3 37.29L18.64 37.45L20 37.5L21.36 37.45L22.7 37.29L24 37.04L25.27 36.69L26.49 36.24L27.68 35.71L28.81 35.1L29.9 34.41L30.93 33.64L31.9 32.8L32.8 31.9L33.64 30.93L34.41 29.9L35.1 28.81L35.71 27.68L36.24 26.49L36.69 25.27L37.04 24L37.29 22.7L37.45 21.36L37.5 20L37.45 18.64L37.29 17.3L37.04 16L36.69 14.73L36.24 13.51L35.71 12.32L35.1 11.19L34.41 10.1L33.64 9.07L32.8 8.1L31.9 7.2L30.93 6.36L29.9 5.59L28.81 4.9L27.68 4.29L26.49 3.76L25.27 3.31L24 2.96L22.7 2.71L21.36 2.55L20 2.5L18.64 2.55L17.3 2.71ZM24.01 10.42L24.58 10.56L25.13 10.74L25.66 10.98L26.15 11.25L26.61 11.57L27.05 11.93L27.44 12.33L27.8 12.76L28.12 13.22L28.4 13.72L28.63 14.24L28.82 14.79L28.95 15.36L29.03 15.95L29.06 16.56L29.03 17.17L28.95 17.76L28.82 18.33L28.63 18.88L28.4 19.41L28.12 19.9L27.8 20.36L27.44 20.8L27.05 21.19L26.61 21.55L26.15 21.87L25.66 22.15L25.13 22.38L24.58 22.57L24.01 22.7L23.42 22.78L22.81 22.81L17.81 22.81L17.81 25.31L25.31 25.31L25.31 27.81L17.81 27.81L17.81 31.56L15.31 31.56L15.31 27.81L12.81 27.81L12.81 25.31L15.31 25.31L15.31 22.81L12.81 22.81L12.81 20.31L15.31 20.31L15.31 10.31L22.81 10.31L23.42 10.34L24.01 10.42ZM17.81 20.31L22.81 20.31L24.02 20.13L25.05 19.6L25.85 18.8L26.38 17.77L26.56 16.56L26.38 15.36L25.85 14.32L25.05 13.52L24.02 13L22.81 12.81L17.81 12.81L17.81 20.31Z" id="a4h9CkD4MC"></path></defs><g><g><g><use xlink:href="#a4h9CkD4MC" opacity="1" fill="#00b956" fill-opacity="1"></use><g><use xlink:href="#a4h9CkD4MC" opacity="1" fill-opacity="0" stroke="#000000" stroke-width="1" stroke-opacity="0"></use></g></g></g></g></svg>
