<svg xmlns="http://www.w3.org/2000/svg" xmlns:xlink="http://www.w3.org/1999/xlink" width="40" height="40" viewBox="0 0 40 40">
    <defs>
        <path id="a" d="M27.6 16.36a5.9 5.9 0 0 0-2.66-6.66V9a9 9 0 0 0-18 0v.7a6 6 0 0 0-2.54 6.66L0 20.76v3.66l2.42 2.42 6.22-6.24a6 6 0 0 0 3 0A6 6 0 0 0 14 23.2V32h3.42L20 29.42v-6.24a6 6 0 0 0 2.3-2.46 6 6 0 0 0 1.06-.14l6.22 6.22L32 24.42v-3.66l-4.4-4.4zM16 2a7 7 0 0 1 7 6.92 6 6 0 0 0-5.44 1.64 6 6 0 0 0-1.06 1.48 6 6 0 0 0-.96.16 5.78 5.78 0 0 0-1.1-1.64A6 6 0 0 0 9 8.92 7 7 0 0 1 16 2zm-5 16a5.8 5.8 0 0 0 0 .66 3.86 3.86 0 0 1-2.36-.14l-.6-.24L2.42 24 2 23.58v-2l4.72-4.7-.24-.6A4 4 0 0 1 13.02 12c.288.3.524.644.7 1.02A6 6 0 0 0 11 18zm7.6 3.66L18 22v6.66l-1.42 1.42H16V22l-.6-.26a4 4 0 0 1 .46-7.5A5.88 5.88 0 0 0 20 20.52a4 4 0 0 1-1.4 1.14zm11.4 2l-.42.42-5.72-5.7-.6.24a4 4 0 1 1-.56-7.6A6.94 6.94 0 0 1 21 14a1 1 0 1 0 1.42 1.4 8.94 8.94 0 0 0 2-3.44l.14.12a4 4 0 0 1 .9 4.28l-.24.6L30 21.58v2.08z"/>
    </defs>
    <g fill="none" fill-rule="evenodd" transform="translate(4 4)">
        <mask id="b" fill="#fff">
            <use xlink:href="#a"/>
        </mask>
        <use fill="#000" fill-rule="nonzero" xlink:href="#a"/>
        <g fill="#00B956" mask="url(#b)">
            <path d="M-6-6h44v44H-6z"/>
        </g>
    </g>
</svg>
