<svg xmlns="http://www.w3.org/2000/svg" xmlns:xlink="http://www.w3.org/1999/xlink" width="40" height="40" viewBox="0 0 40 40">
    <defs>
        <path id="a" d="M35 17.636V16c0-4.274-1.664-8.292-4.686-11.314A15.895 15.895 0 0 0 19 0 15.895 15.895 0 0 0 7.686 4.686L9.1 6.1A13.909 13.909 0 0 1 19 2c3.74 0 7.256 1.456 9.9 4.1A13.909 13.909 0 0 1 33 16v1.636l-1.176-2.206L30 16.568 33.236 20h1.528L38 16.568l-1.824-1.138L35 17.636zM19 30c-3.74 0-7.256-1.456-9.9-4.1A13.909 13.909 0 0 1 5 16v-1.638l1.176 2.206L8 15.43 4.764 12H3.236L0 15.43l1.824 1.138L3 14.362V16c0 4.274 1.664 8.292 4.686 11.314A15.895 15.895 0 0 0 19 32c4.274 0 8.292-1.664 11.314-4.686L28.9 25.9A13.909 13.909 0 0 1 19 30m-2-19.997h4c1.654 0 3 1.348 3 3.004a3.006 3.006 0 0 1-3 3.004h-4v-6.008zm-2 14.998h2v-3h6v-2h-6v-2h4a5 5 0 0 0 5-4.994 5.01 5.01 0 0 0-5-5.006h-6v8.01h-2v1.99h2v2h-2v2h2v3z"/>
    </defs>
    <g fill="none" fill-rule="evenodd" transform="translate(1 4)">
        <mask id="b" fill="#fff">
            <use xlink:href="#a"/>
        </mask>
        <use fill="#000" xlink:href="#a"/>
        <g fill="#00B956" mask="url(#b)">
            <path d="M-3-6h44v44H-3z"/>
        </g>
    </g>
</svg>
