<?xml version="1.0" encoding="UTF-8" standalone="no"?>
<!DOCTYPE svg PUBLIC "-//W3C//DTD SVG 1.1//EN" "http://www.w3.org/Graphics/SVG/1.1/DTD/svg11.dtd">
<svg version="1.1" xmlns="http://www.w3.org/2000/svg" xmlns:xlink="http://www.w3.org/1999/xlink" preserveAspectRatio="xMidYMid meet" viewBox="0 0 40 40" width="40" height="40"><defs><path d="M21.15 0.07L21.75 0.15L22.34 0.26L22.92 0.4L23.48 0.57L24.03 0.77L24.57 1L25.1 1.26L25.6 1.54L26.09 1.84L26.57 2.17L27.03 2.52L27.46 2.9L27.88 3.3L28.28 3.71L28.65 4.15L29 4.61L29.33 5.08L29.64 5.57L29.92 6.08L30.17 6.6L30.4 7.14L30.6 7.69L30.77 8.26L30.92 8.84L31.03 9.43L31.11 10.02L31.16 10.63L31.18 11.25L31.18 12.12L31.36 12.24L31.55 12.37L31.72 12.52L31.9 12.67L32.06 12.83L32.22 13L32.38 13.19L32.53 13.38L32.68 13.59L32.82 13.81L32.95 14.04L33.08 14.28L33.2 14.53L33.32 14.79L33.44 15.06L33.55 15.34L33.65 15.64L33.75 15.94L33.84 16.26L33.92 16.58L34.01 16.92L34.08 17.27L34.15 17.63L34.22 18L34.28 18.38L34.33 18.77L34.38 19.18L34.43 19.59L34.47 20.01L34.5 20.45L40 25.95L40 30.53L36.97 33.5L29.2 25.72L29.16 25.73L29.11 25.74L29.07 25.75L29.03 25.76L28.98 25.77L28.94 25.78L28.89 25.79L28.85 25.79L28.81 25.8L28.76 25.81L28.72 25.82L28.67 25.82L28.63 25.83L28.59 25.84L28.54 25.84L28.5 25.85L28.45 25.85L28.41 25.86L28.36 25.86L28.32 25.87L28.28 25.87L28.23 25.88L28.19 25.88L28.14 25.88L28.1 25.89L28.05 25.89L28.01 25.89L27.96 25.9L27.92 25.9L27.88 25.9L27.81 26.03L27.74 26.15L27.67 26.28L27.6 26.4L27.52 26.52L27.45 26.64L27.37 26.76L27.29 26.88L27.2 26.99L27.12 27.1L27.03 27.21L26.94 27.32L26.85 27.43L26.75 27.54L26.66 27.64L26.56 27.75L26.46 27.85L26.36 27.95L26.26 28.04L26.15 28.14L26.04 28.23L25.93 28.32L25.82 28.41L25.71 28.5L25.6 28.58L25.48 28.67L25.36 28.75L25.24 28.82L25.12 28.9L25 28.97L25 36.78L21.78 40L17.5 40L17.5 29L17.37 28.92L17.25 28.84L17.12 28.76L17 28.67L16.88 28.59L16.76 28.5L16.64 28.41L16.53 28.31L16.42 28.22L16.31 28.12L16.2 28.02L16.09 27.92L15.99 27.81L15.88 27.7L15.78 27.6L15.68 27.49L15.59 27.37L15.49 27.26L15.4 27.14L15.31 27.02L15.23 26.9L15.14 26.78L15.06 26.66L14.98 26.53L14.9 26.41L14.83 26.28L14.75 26.15L14.68 26.02L14.62 25.88L14.55 25.75L14.43 25.78L14.3 25.81L14.18 25.84L14.06 25.86L13.93 25.88L13.81 25.9L13.68 25.92L13.56 25.94L13.43 25.95L13.3 25.96L13.18 25.97L13.05 25.98L12.93 25.98L12.8 25.99L12.68 25.99L12.55 25.99L12.42 25.98L12.3 25.98L12.17 25.97L12.05 25.96L11.92 25.95L11.79 25.94L11.67 25.92L11.54 25.9L11.42 25.88L11.29 25.86L11.17 25.84L11.05 25.81L10.92 25.78L10.8 25.75L3.03 33.55L0 30.53L0 25.95L5.5 20.45L5.42 20.13L5.35 19.81L5.3 19.49L5.26 19.17L5.24 18.86L5.23 18.54L5.23 18.22L5.24 17.9L5.27 17.59L5.31 17.28L5.37 16.97L5.44 16.66L5.52 16.36L5.61 16.06L5.72 15.76L5.83 15.47L5.96 15.19L6.11 14.91L6.26 14.64L6.42 14.37L6.6 14.11L6.79 13.85L6.99 13.61L7.2 13.37L7.42 13.14L7.65 12.92L7.89 12.7L8.14 12.5L8.4 12.31L8.68 12.13L8.68 11.25L8.69 10.63L8.74 10.02L8.82 9.43L8.93 8.84L9.08 8.26L9.25 7.69L9.45 7.14L9.68 6.6L9.93 6.08L10.21 5.57L10.52 5.08L10.85 4.61L11.2 4.15L11.57 3.71L11.97 3.3L12.39 2.9L12.82 2.52L13.28 2.17L13.76 1.84L14.25 1.54L14.75 1.26L15.28 1L15.82 0.77L16.37 0.57L16.93 0.4L17.51 0.26L18.1 0.15L18.7 0.07L19.31 0.02L19.93 0L20.54 0.02L21.15 0.07ZM18.92 18.17L18.51 18.41L18.12 18.69L17.76 19.01L17.43 19.36L17.14 19.74L16.88 20.15L16.67 20.59L16.38 21.45L16.26 22.32L16.28 23.18L16.46 24.02L16.77 24.81L17.21 25.54L17.78 26.19L18.46 26.74L19.25 27.17L20 27.5L20 37.6L20.73 37.6L22.5 35.82L22.5 27.5L23.25 27.07L23.47 26.96L23.69 26.83L23.9 26.69L24.11 26.54L24.3 26.38L24.49 26.21L24.67 26.03L24.84 25.85L25 25.65L23.92 25.23L22.93 24.65L22.06 23.94L21.32 23.11L20.7 22.18L20.24 21.17L19.93 20.09L19.79 18.96L19.83 17.8L19.36 17.96L18.92 18.17ZM26.58 13.68L26.33 13.71L26.08 13.77L25.83 13.83L25.58 13.91L25.34 14L24.73 14.29L24.17 14.66L23.68 15.09L23.25 15.57L22.9 16.11L22.61 16.68L22.39 17.28L22.26 17.91L22.21 18.55L22.24 19.2L22.36 19.86L22.57 20.5L22.87 21.12L23.23 21.67L23.66 22.16L24.15 22.59L24.68 22.95L25.25 23.24L25.85 23.45L26.48 23.58L27.12 23.64L27.78 23.61L28.43 23.49L29.07 23.27L29.37 23.16L29.44 23.13L29.83 22.97L36.97 30.1L37.5 29.57L37.5 26.97L31.53 21.2L31.83 20.45L31.98 19.98L32.09 19.51L32.15 19.03L32.16 18.55L32.13 18.08L32.06 17.61L31.94 17.15L31.78 16.7L31.57 16.27L31.32 15.85L31.03 15.46L30.7 15.1L30.53 14.95L30.39 15.35L30.25 15.74L30.08 16.13L29.91 16.5L29.72 16.88L29.52 17.24L29.3 17.6L29.07 17.95L28.83 18.29L28.57 18.62L28.31 18.94L28.03 19.25L28.01 19.26L28 19.27L27.99 19.29L27.98 19.3L27.97 19.31L27.96 19.32L27.95 19.33L27.94 19.34L27.93 19.35L27.91 19.37L27.9 19.38L27.89 19.39L27.75 19.49L27.61 19.57L27.46 19.63L27.3 19.67L27.14 19.69L26.98 19.69L26.82 19.67L26.67 19.63L26.52 19.57L26.38 19.48L26.25 19.38L26.13 19.26L26.02 19.13L25.94 18.98L25.88 18.83L25.84 18.68L25.82 18.52L25.82 18.36L25.84 18.2L25.89 18.04L25.95 17.89L26.03 17.75L26.13 17.62L26.25 17.5L26.5 17.23L26.73 16.96L26.95 16.67L27.16 16.38L27.36 16.08L27.55 15.77L27.72 15.45L27.88 15.13L28.02 14.8L28.15 14.46L28.27 14.12L28.38 13.77L28.12 13.72L27.87 13.68L27.61 13.65L27.35 13.64L27.1 13.64L26.84 13.65L26.58 13.68ZM11.6 13.7L10.99 13.9L10.18 14.29L9.47 14.81L8.87 15.43L8.4 16.14L8.05 16.92L7.84 17.75L7.77 18.61L7.85 19.48L8.1 20.35L8.4 21.1L2.5 26.97L2.5 29.47L3.03 30L10.05 22.85L10.8 23.15L11.12 23.26L11.44 23.35L11.77 23.41L12.1 23.46L12.43 23.48L12.76 23.47L13.09 23.45L13.42 23.4L13.75 23.32L13.75 23.23L13.74 23.14L13.74 23.05L13.74 22.96L13.74 22.87L13.74 22.77L13.74 22.68L13.75 22.59L13.75 22.5L13.8 21.67L13.94 20.86L14.17 20.07L14.48 19.32L14.87 18.61L15.34 17.94L15.87 17.33L16.48 16.77L17.15 16.27L17.07 16.12L16.99 15.97L16.91 15.82L16.81 15.67L16.72 15.53L16.61 15.39L16.51 15.26L16.39 15.13L16.27 15L15.79 14.58L15.26 14.23L14.69 13.95L14.1 13.75L13.49 13.62L12.86 13.57L12.23 13.6L11.6 13.7ZM16.97 3.04L15.61 3.68L14.4 4.53L13.34 5.57L12.48 6.78L11.82 8.13L11.41 9.59L11.25 11.15L12.07 11.03L12.9 11L13.71 11.06L14.52 11.21L15.29 11.45L16.04 11.77L16.76 12.17L17.43 12.64L18.05 13.2L18.24 13.4L18.42 13.61L18.59 13.83L18.75 14.05L18.9 14.28L19.05 14.52L19.18 14.76L19.31 15L19.42 15.25L19.56 15.22L19.69 15.19L19.82 15.16L19.95 15.14L20.09 15.11L20.22 15.09L20.36 15.08L20.49 15.06L20.63 15.05L20.74 14.83L20.87 14.6L21 14.39L21.14 14.18L21.29 13.97L21.45 13.77L21.61 13.58L21.78 13.38L21.95 13.2L22.57 12.64L23.24 12.17L23.96 11.77L24.71 11.45L25.48 11.21L26.29 11.06L27.1 11L27.93 11.03L28.75 11.15L28.59 9.59L28.18 8.13L27.52 6.78L26.66 5.57L25.6 4.53L24.39 3.68L23.03 3.04L21.56 2.64L20 2.5L18.44 2.64L16.97 3.04Z" id="c3zLVtnomY"></path></defs><g><g><g><use xlink:href="#c3zLVtnomY" opacity="1" fill="#00b956" fill-opacity="1"></use><g><use xlink:href="#c3zLVtnomY" opacity="1" fill-opacity="0" stroke="#000000" stroke-width="1" stroke-opacity="0"></use></g></g></g></g></svg>
