<?xml version="1.0" encoding="UTF-8" standalone="no"?>
<!DOCTYPE svg PUBLIC "-//W3C//DTD SVG 1.1//EN" "http://www.w3.org/Graphics/SVG/1.1/DTD/svg11.dtd">
<svg version="1.1" xmlns="http://www.w3.org/2000/svg" xmlns:xlink="http://www.w3.org/1999/xlink" preserveAspectRatio="xMidYMid meet" viewBox="0 0 40 40" width="40" height="40"><defs><path d="M31.92 0.01L32.13 0.03L32.34 0.06L32.54 0.09L32.74 0.13L32.95 0.17L33.15 0.23L33.34 0.29L33.54 0.35L33.73 0.43L33.92 0.51L34.11 0.6L34.3 0.69L34.49 0.8L34.67 0.91L34.85 1.02L35.03 1.15L35.2 1.28L35.37 1.42L35.54 1.56L35.71 1.72L35.88 1.88L38.13 4.13L38.28 4.27L38.44 4.43L38.58 4.59L38.72 4.75L38.85 4.92L38.98 5.1L39.09 5.28L39.2 5.46L39.31 5.65L39.4 5.83L39.49 6.03L39.57 6.22L39.65 6.42L39.71 6.62L39.77 6.83L39.83 7.03L39.87 7.24L39.91 7.45L39.94 7.65L39.97 7.87L39.99 8.08L40 8.29L40 8.5L40 8.73L39.99 8.95L39.97 9.17L39.94 9.39L39.91 9.61L39.87 9.82L39.83 10.03L39.77 10.24L39.71 10.44L39.65 10.64L39.57 10.84L39.49 11.03L39.4 11.23L39.31 11.42L39.2 11.6L39.09 11.79L38.98 11.97L38.85 12.15L38.72 12.33L38.58 12.5L38.44 12.67L38.28 12.84L38.13 13L15.25 35.88L2.5 40L0 37.5L4.13 24.75L27.13 1.88L27.27 1.72L27.43 1.56L27.59 1.42L27.75 1.28L27.92 1.15L28.1 1.02L28.28 0.91L28.46 0.8L28.65 0.69L28.83 0.6L29.03 0.51L29.22 0.43L29.42 0.35L29.62 0.29L29.83 0.23L30.03 0.17L30.24 0.13L30.45 0.09L30.65 0.06L30.87 0.03L31.08 0.01L31.29 0L31.5 0L31.71 0L31.92 0.01ZM3 37L3.13 37.13L14 33.63L33.75 13.88L26.13 6.25L6.5 26.13L3 37ZM29.69 2.97L28.75 3.63L28.69 3.69L28.39 3.98L28.16 4.21L27.88 4.5L35.5 12.13L35.98 11.65L36.15 11.47L36.28 11.34L36.38 11.25L36.78 10.77L37.1 10.25L37.32 9.68L37.46 9.1L37.5 8.5L37.45 7.92L37.31 7.36L37.07 6.84L36.72 6.34L36.25 5.88L34 3.63L33.06 2.97L31.95 2.63L30.8 2.63L29.69 2.97Z" id="a1V30wLOI"></path></defs><g><g><g><use xlink:href="#a1V30wLOI" opacity="1" fill="#00b956" fill-opacity="1"></use><g><use xlink:href="#a1V30wLOI" opacity="1" fill-opacity="0" stroke="#000000" stroke-width="1" stroke-opacity="0"></use></g></g></g></g></svg>
