<svg xmlns="http://www.w3.org/2000/svg" xmlns:xlink="http://www.w3.org/1999/xlink" width="40" height="40"><defs><path d="M21.15.07l.6.08.59.11.58.14.56.17.55.2.54.23.53.26.5.28.49.3.48.33.46.35.43.38.42.4.4.41.37.44.35.46.33.47.31.49.28.51.25.52.23.54.2.55.17.57.15.58.11.59.08.59.05.61.02.62v.87l.18.12.19.13.17.15.18.15.16.16.16.17.16.19.15.19.15.21.14.22.13.23.13.24.12.25.12.26.12.27.11.28.1.3.1.3.09.32.08.32.09.34.07.35.07.36.07.37.06.38.05.39.05.41.05.41.04.42.03.44 5.5 5.5v4.58l-3.03 2.97-7.77-7.78-.04.01-.05.01-.04.01-.04.01-.05.01-.04.01-.05.01h-.04l-.04.01-.05.01-.04.01h-.05l-.04.01-.04.01h-.05l-.04.01h-.05l-.04.01h-.05l-.04.01h-.04l-.05.01h-.09l-.04.01h-.09l-.05.01h-.08l-.07.13-.07.12-.07.13-.07.12-.08.12-.07.12-.08.12-.08.12-.09.11-.08.11-.09.11-.09.11-.09.11-.1.11-.09.1-.1.11-.1.1-.1.1-.1.09-.11.1-.11.09-.11.09-.11.09-.11.09-.11.08-.12.09-.12.08-.12.07-.12.08-.12.07v7.81L21.78 40H17.5V29l-.13-.08-.12-.08-.13-.08-.12-.09-.12-.08-.12-.09-.12-.09-.11-.1-.11-.09-.11-.1-.11-.1-.11-.1-.1-.11-.11-.11-.1-.1-.1-.11-.09-.12-.1-.11-.09-.12-.09-.12-.08-.12-.09-.12-.08-.12-.08-.13-.08-.12-.07-.13-.08-.13-.07-.13-.06-.14-.07-.13-.12.03-.13.03-.12.03-.12.02-.13.02-.12.02-.13.02-.12.02-.13.01-.13.01-.12.01-.13.01h-.12l-.13.01h-.25l-.13-.01h-.12l-.13-.01-.12-.01-.13-.01-.13-.01-.12-.02-.13-.02-.12-.02-.13-.02-.12-.02-.12-.03-.13-.03-.12-.03-7.77 7.8L0 30.53v-4.58l5.5-5.5-.08-.32-.07-.32-.05-.32-.04-.32-.02-.31-.01-.32v-.32l.01-.32.03-.31.04-.31.06-.31.07-.31.08-.3.09-.3.11-.3.11-.29.13-.28.15-.28.15-.27.16-.27.18-.26.19-.26.2-.24.21-.24.22-.23.23-.22.24-.22.25-.2.26-.19.28-.18v-.88l.01-.62.05-.61.08-.59.11-.59.15-.58.17-.57.2-.55.23-.54.25-.52.28-.51.31-.49.33-.47.35-.46.37-.44.4-.41.42-.4.43-.38.46-.35.48-.33.49-.3.5-.28.53-.26.54-.23.55-.2.56-.17.58-.14.59-.11.6-.08.61-.05.62-.02.61.02.61.05zm-2.23 18.1l-.41.24-.39.28-.36.32-.33.35-.29.38-.26.41-.21.44-.29.86-.12.87.02.86.18.84.31.79.44.73.57.65.68.55.79.43.75.33v10.1h.73l1.77-1.78V27.5l.75-.43.22-.11.22-.13.21-.14.21-.15.19-.16.19-.17.18-.18.17-.18.16-.2-1.08-.42-.99-.58-.87-.71-.74-.83-.62-.93-.46-1.01-.31-1.08-.14-1.13.04-1.16-.47.16-.44.21zm7.66-4.49l-.25.03-.25.06-.25.06-.25.08-.24.09-.61.29-.56.37-.49.43-.43.48-.35.54-.29.57-.22.6-.13.63-.05.64.03.65.12.66.21.64.3.62.36.55.43.49.49.43.53.36.57.29.6.21.63.13.64.06.66-.03.65-.12.64-.22.3-.11.07-.03.39-.16 7.14 7.13.53-.53v-2.6l-5.97-5.77.3-.75.15-.47.11-.47.06-.48.01-.48-.03-.47-.07-.47-.12-.46-.16-.45-.21-.43-.25-.42-.29-.39-.33-.36-.17-.15-.14.4-.14.39-.17.39-.17.37-.19.38-.2.36-.22.36-.23.35-.24.34-.26.33-.26.32-.28.31-.02.01-.01.01-.01.02-.01.01-.01.01-.01.01-.01.01-.01.01-.01.01-.02.02-.01.01-.01.01-.14.1-.14.08-.15.06-.16.04-.16.02h-.16l-.16-.02-.15-.04-.15-.06-.14-.09-.13-.1-.12-.12-.11-.13-.08-.15-.06-.15-.04-.15-.02-.16v-.16l.02-.16.05-.16.06-.15.08-.14.1-.13.12-.12.25-.27.23-.27.22-.29.21-.29.2-.3.19-.31.17-.32.16-.32.14-.33.13-.34.12-.34.11-.35-.26-.05-.25-.04-.26-.03-.26-.01h-.25l-.26.01-.26.03zm-14.98.02l-.61.2-.81.39-.71.52-.6.62-.47.71-.35.78-.21.83-.07.86.08.87.25.87.3.75-5.9 5.87v2.5l.53.53 7.02-7.15.75.3.32.11.32.09.33.06.33.05.33.02.33-.01.33-.02.33-.05.33-.08v-.09l-.01-.09v-.46l.01-.09v-.09l.05-.83.14-.81.23-.79.31-.75.39-.71.47-.67.53-.61.61-.56.67-.5-.08-.15-.08-.15-.08-.15-.1-.15-.09-.14-.11-.14-.1-.13-.12-.13-.12-.13-.48-.42-.53-.35-.57-.28-.59-.2-.61-.13-.63-.05-.63.03-.63.1zm5.37-10.66l-1.36.64-1.21.85-1.06 1.04-.86 1.21-.66 1.35-.41 1.46-.16 1.56.82-.12.83-.03.81.06.81.15.77.24.75.32.72.4.67.47.62.56.19.2.18.21.17.22.16.22.15.23.15.24.13.24.13.24.11.25.14-.03.13-.03.13-.03.13-.02.14-.03.13-.02.14-.01.13-.02.14-.01.11-.22.13-.23.13-.21.14-.21.15-.21.16-.2.16-.19.17-.2.17-.18.62-.56.67-.47.72-.4.75-.32.77-.24.81-.15.81-.06.83.03.82.12-.16-1.56-.41-1.46-.66-1.35-.86-1.21-1.06-1.04-1.21-.85-1.36-.64-1.47-.4L20 2.5l-1.56.14-1.47.4z" id="a"/></defs><use xlink:href="#a" fill="#00b956"/><use xlink:href="#a" fill-opacity="0" stroke="#000" stroke-opacity="0"/></svg>