<svg xmlns="http://www.w3.org/2000/svg" xmlns:xlink="http://www.w3.org/1999/xlink" width="38" height="32"><defs><path d="M6.04 16.69L4.87 14.5v1.62l.01.58.04.58.05.58.09.57.1.56.13.56.15.55.18.54.19.54.22.53.24.51.26.51.29.5.3.48.32.48.35.46.36.45.39.43.4.42.42.4.44.39.44.36.46.35.48.32.48.3.5.28.5.26.52.24.53.22.53.2.54.17.55.15.56.13.56.11.57.08.58.06.58.03.58.02.58-.02.58-.03.57-.06.57-.08.57-.11.55-.13.56-.15.54-.17.54-.2.52-.22.52-.24.51-.26.5-.28.48-.3.48-.33.46-.34.44-.37.44-.38.42-.4 1.4 1.4-.48.46-.5.44-.51.42-.53.39-.54.37-.56.35-.56.32-.58.3-.59.27-.6.25-.61.22-.62.2-.63.18-.64.14-.64.12-.65.1-.66.07-.66.04-.67.01-.66-.01-.66-.04-.66-.07-.65-.09-.64-.12-.64-.15-.63-.17-.62-.2-.61-.23-.61-.25-.59-.27-.58-.3-.57-.32-.55-.35-.54-.37-.53-.39-.51-.42-.5-.44-.47-.46-.47-.48-.44-.5-.41-.51-.4-.53-.37-.54-.34-.55-.32-.57-.3-.58-.28-.59-.25-.6-.22-.61-.2-.62-.17-.63-.15-.63-.12-.65-.09-.65-.07-.66-.04-.66-.01-.67V14.5l-1.17 2.19-1.81-1.13 3.21-3.4h1.52l3.21 3.4-1.81 1.13zM21.7 8.23l.54.16.51.22.48.27.44.32.4.36.37.41.31.44.27.48.22.51.16.53.09.56.04.58-.04.58-.09.56-.16.53-.22.51-.27.48-.31.44-.37.4-.4.37-.45.31-.47.27-.51.22-.54.15-.55.1-.58.03H16.6v1.99h5.95v1.98H16.6v2.98h-1.99v-2.98h-1.98v-1.98h1.98v-1.99h-1.98v-1.97h1.98V8.1h5.96l.58.04.55.09zM20.09.05l.65.07.65.09.65.12.63.15.63.17.63.2.61.23.6.25.59.27.58.3.57.32.56.35.54.37.52.39.52.42.49.44.48.46.46.48.44.5.42.51.39.53.37.54.35.55.32.57.3.58.27.59.25.6.22.61.2.62.17.63.15.63.12.65.1.65.06.66.04.66.02.67v1.62l1.16-2.19 1.81 1.13-3.21 3.4h-1.51l-3.21-3.4 1.81-1.13 1.16 2.19v-1.62l-.01-.58-.03-.58-.06-.58-.08-.57-.11-.56-.13-.56-.15-.55-.17-.54-.2-.54-.22-.53-.24-.51-.26-.51-.28-.5-.31-.48-.32-.48-.34-.46-.37-.45-.38-.43-.4-.42-.43-.4-.43-.39-.45-.36-.46-.35-.47-.32-.49-.3-.49-.28-.51-.26-.52-.24-.52-.22-.54-.2-.54-.17-.55-.15-.56-.13-.56-.11-.57-.08-.57-.06-.58-.03-.59-.02-.58.02-.58.03-.57.06-.57.08-.56.11-.56.13-.55.15-.55.17-.53.2-.53.22-.52.24-.51.26-.49.28-.49.3-.47.33-.46.34-.45.37-.43.38-.42.4-1.4-1.4.47-.46.5-.44.51-.42.53-.39.54-.37.55-.35.57-.32.58-.3.59-.27.61-.25.61-.23.62-.2.63-.17.64-.15.64-.12.65-.09.66-.07.66-.04.66-.01.67.01.66.04zm-3.32 16h3.97l1.16-.24.94-.64.64-.94.23-1.16-.23-1.16-.64-.95-.94-.64-1.16-.23h-3.97v5.96z" id="a"/></defs><use xlink:href="#a" fill="#00b956"/><use xlink:href="#a" fill-opacity="0" stroke="#000" stroke-opacity="0"/></svg>