<svg xmlns="http://www.w3.org/2000/svg" xmlns:xlink="http://www.w3.org/1999/xlink" width="40" height="40"><defs><path d="M22.6.17l1.26.21 1.24.28 1.2.36 1.18.44 1.14.5 1.1.58 1.06.63 1.01.7.97.76.92.82.87.87.82.92.76.97.7 1.01.63 1.06.58 1.1.5 1.14.44 1.18.36 1.2.28 1.24.21 1.26.13 1.29L40 20l-.04 1.31-.13 1.29-.21 1.26-.28 1.24-.36 1.2-.44 1.18-.5 1.14-.58 1.1-.63 1.06-.7 1.01-.76.97-.82.92-.87.87-.92.82-.97.76-1.01.7-1.06.63-1.1.58-1.14.5-1.18.44-1.2.36-1.24.28-1.26.21-1.29.13L20 40l-1.31-.04-1.29-.13-1.26-.21-1.24-.28-1.2-.36-1.18-.44-1.14-.5-1.1-.58-1.06-.63-1.01-.7-.97-.76-.92-.82-.87-.87-.82-.92-.76-.97-.7-1.01-.63-1.06-.58-1.1-.5-1.14-.44-1.18-.36-1.2-.28-1.24-.21-1.26-.13-1.29L0 20l.04-1.31.13-1.29.21-1.26.28-1.24.36-1.2.44-1.18.5-1.14.58-1.1.63-1.06.7-1.01.76-.97.82-.92.87-.87.92-.82.97-.76 1.01-.7 1.06-.63 1.1-.58 1.14-.5 1.18-.44 1.2-.36 1.24-.28L17.4.17l1.29-.13L20 0l1.31.04 1.29.13zm-5.3 2.54l-1.3.25-1.27.35-1.22.45-1.19.53-1.13.61-1.09.69-1.03.77-.97.84-.9.9-.84.97-.77 1.03-.69 1.09-.61 1.13-.53 1.19-.45 1.22L2.96 16l-.25 1.3-.16 1.34L2.5 20l.05 1.36.16 1.34.25 1.3.35 1.27.45 1.22.53 1.19.61 1.13.69 1.09.77 1.03.84.97.9.9.97.84 1.03.77 1.09.69 1.13.61 1.19.53 1.22.45 1.27.35 1.3.25 1.34.16 1.36.05 1.36-.05 1.34-.16 1.3-.25 1.27-.35 1.22-.45 1.19-.53 1.13-.61 1.09-.69 1.03-.77.97-.84.9-.9.84-.97.77-1.03.69-1.09.61-1.13.53-1.19.45-1.22.35-1.27.25-1.3.16-1.34.05-1.36-.05-1.36-.16-1.34-.25-1.3-.35-1.27-.45-1.22-.53-1.19-.61-1.13-.69-1.09-.77-1.03-.84-.97-.9-.9-.97-.84-1.03-.77-1.09-.69-1.13-.61-1.19-.53-1.22-.45L24 2.96l-1.3-.25-1.34-.16L20 2.5l-1.36.05-1.34.16zm6.71 7.71l.57.14.55.18.53.24.49.27.46.32.44.36.39.4.36.43.32.46.28.5.23.52.19.55.13.57.08.59.03.61-.03.61-.08.59-.13.57-.19.55-.23.53-.28.49-.32.46-.36.44-.39.39-.44.36-.46.32-.49.28-.53.23-.55.19-.57.13-.59.08-.61.03h-5v2.5h7.5v2.5h-7.5v3.75h-2.5v-3.75h-2.5v-2.5h2.5v-2.5h-2.5v-2.5h2.5v-10h7.5l.61.03.59.08zm-6.2 9.89h5l1.21-.18 1.03-.53.8-.8.53-1.03.18-1.21-.18-1.2-.53-1.04-.8-.8-1.03-.52-1.21-.19h-5v7.5z" id="a"/></defs><use xlink:href="#a" fill="#00b956"/><use xlink:href="#a" fill-opacity="0" stroke="#000" stroke-opacity="0"/></svg>