<svg xmlns="http://www.w3.org/2000/svg" xmlns:xlink="http://www.w3.org/1999/xlink" width="36" height="28"><defs><path d="M23.53 16.78l-.72 1.11-.92.93-1.12.72-1.26.45-1.38.15-1.38-.15-1.26-.45-1.12-.72-.94-.93-.71-1.11-.45-1.26-.16-1.38v-2h12.03v2l-.16 1.38-.45 1.26z" id="a"/><path d="M29.23 6l6.33 6.3-1.4 1.4-4.32-4.29V28H5.74V9.39L1.4 13.7 0 12.3 6.32 6h3.42V-.05H25.8V6h3.43zM7.73 26.02h20.12V7.99H7.73v18.03zm4-20.05h12.08V1.94H11.73v4.03z" id="b"/><path d="M14.42 15.7l.86 1.28 1.28.87 1.57.31 1.56-.31 1.28-.87.87-1.28.32-1.56v-.02H14.1v.02l.32 1.56z" id="c"/></defs><use xlink:href="#a" fill="#00b956"/><use xlink:href="#a" fill-opacity="0" stroke="#000" stroke-opacity="0"/><use xlink:href="#b" fill="#00b956"/><use xlink:href="#b" fill-opacity="0" stroke="#000" stroke-opacity="0"/><use xlink:href="#c" fill="#fff"/><use xlink:href="#c" fill-opacity="0" stroke="#000" stroke-opacity="0"/></svg>