<svg xmlns="http://www.w3.org/2000/svg" xmlns:xlink="http://www.w3.org/1999/xlink" width="40" height="40"><defs><path d="M31.92.01l.21.02.21.03.2.03.2.04.21.04.2.06.19.06.2.06.19.08.19.08.19.09.19.09.19.11.18.11.18.11.18.13.17.13.17.14.17.14.17.16.17.16 2.25 2.25.15.14.16.16.14.16.14.16.13.17.13.18.11.18.11.18.11.19.09.18.09.2.08.19.08.2.06.2.06.21.06.2.04.21.04.21.03.2.03.22.02.21.01.21v.44l-.01.22-.02.22-.03.22-.03.22-.04.21-.04.21-.06.21-.06.2-.06.2-.08.2-.08.19-.09.2-.09.19-.11.18-.11.19-.11.18-.13.18-.13.18-.14.17-.14.17-.16.17-.15.16-22.88 22.88L2.5 40 0 37.5l4.13-12.75 23-22.87.14-.16.16-.16.16-.14.16-.14.17-.13.18-.13.18-.11.18-.11.19-.11.18-.09.2-.09.19-.08.2-.08.2-.06.21-.06.2-.06.21-.04.21-.04.2-.03.22-.03.21-.02.21-.01h.42l.21.01zM3 37l.13.13L14 33.63l19.75-19.75-7.62-7.63L6.5 26.13 3 37zM29.69 2.97l-.94.66-.06.06-.3.29-.23.23-.28.29 7.62 7.63.48-.48.17-.18.13-.13.1-.09.4-.48.32-.52.22-.57.14-.58.04-.6-.05-.58-.14-.56-.24-.52-.35-.5-.47-.46L34 3.63l-.94-.66-1.11-.34H30.8l-1.11.34z" id="a"/></defs><use xlink:href="#a" fill="#00b956"/><use xlink:href="#a" fill-opacity="0" stroke="#000" stroke-opacity="0"/></svg>