<svg xmlns="http://www.w3.org/2000/svg" xmlns:xlink="http://www.w3.org/1999/xlink"><defs><path d="M6.04 16.69L4.87 14.5L4.87 16.12L4.88 16.7L4.92 17.28L4.97 17.86L5.06 18.43L5.16 18.99L5.29 19.55L5.44 20.1L5.62 20.64L5.81 21.18L6.03 21.71L6.27 22.22L6.53 22.73L6.82 23.23L7.12 23.71L7.44 24.19L7.79 24.65L8.15 25.1L8.54 25.53L8.94 25.95L9.36 26.35L9.8 26.74L10.24 27.1L10.7 27.45L11.18 27.77L11.66 28.07L12.16 28.35L12.66 28.61L13.18 28.85L13.71 29.07L14.24 29.27L14.78 29.44L15.33 29.59L15.89 29.72L16.45 29.83L17.02 29.91L17.6 29.97L18.18 30L18.76 30.02L19.34 30L19.92 29.97L20.49 29.91L21.06 29.83L21.63 29.72L22.18 29.59L22.74 29.44L23.28 29.27L23.82 29.07L24.34 28.85L24.86 28.61L25.37 28.35L25.87 28.07L26.35 27.77L26.83 27.44L27.29 27.1L27.73 26.73L28.17 26.35L28.59 25.95L29.99 27.35L29.51 27.81L29.01 28.25L28.5 28.67L27.97 29.06L27.43 29.43L26.87 29.78L26.31 30.1L25.73 30.4L25.14 30.67L24.54 30.92L23.93 31.14L23.31 31.34L22.68 31.52L22.04 31.66L21.4 31.78L20.75 31.88L20.09 31.95L19.43 31.99L18.76 32L18.1 31.99L17.44 31.95L16.78 31.88L16.13 31.79L15.49 31.67L14.85 31.52L14.22 31.35L13.6 31.15L12.99 30.92L12.38 30.67L11.79 30.4L11.21 30.1L10.64 29.78L10.09 29.43L9.55 29.06L9.02 28.67L8.51 28.25L8.01 27.81L7.54 27.35L7.07 26.87L6.63 26.37L6.22 25.86L5.82 25.33L5.45 24.79L5.11 24.24L4.79 23.67L4.49 23.09L4.21 22.5L3.96 21.9L3.74 21.29L3.54 20.67L3.37 20.04L3.22 19.41L3.1 18.76L3.01 18.11L2.94 17.45L2.9 16.79L2.89 16.12L2.89 14.5L1.72 16.69L-0.09 15.56L3.12 12.16L4.64 12.16L7.85 15.56L6.04 16.69ZM21.7 8.23L22.24 8.39L22.75 8.61L23.23 8.88L23.67 9.2L24.07 9.56L24.44 9.97L24.75 10.41L25.02 10.89L25.24 11.4L25.4 11.93L25.49 12.49L25.53 13.07L25.49 13.65L25.4 14.21L25.24 14.74L25.02 15.25L24.75 15.73L24.44 16.17L24.07 16.57L23.67 16.94L23.22 17.25L22.75 17.52L22.24 17.74L21.7 17.89L21.15 17.99L20.57 18.02L16.6 18.02L16.6 20.01L22.55 20.01L22.55 21.99L16.6 21.99L16.6 24.97L14.61 24.97L14.61 21.99L12.63 21.99L12.63 20.01L14.61 20.01L14.61 18.02L12.63 18.02L12.63 16.05L14.61 16.05L14.61 8.1L20.57 8.1L21.15 8.14L21.7 8.23ZM20.09 0.05L20.74 0.12L21.39 0.21L22.04 0.33L22.67 0.48L23.3 0.65L23.93 0.85L24.54 1.08L25.14 1.33L25.73 1.6L26.31 1.9L26.88 2.22L27.44 2.57L27.98 2.94L28.5 3.33L29.02 3.75L29.51 4.19L29.99 4.65L30.45 5.13L30.89 5.63L31.31 6.14L31.7 6.67L32.07 7.21L32.42 7.76L32.74 8.33L33.04 8.91L33.31 9.5L33.56 10.1L33.78 10.71L33.98 11.33L34.15 11.96L34.3 12.59L34.42 13.24L34.52 13.89L34.58 14.55L34.62 15.21L34.64 15.88L34.64 17.5L35.8 15.31L37.61 16.44L34.4 19.84L32.89 19.84L29.68 16.44L31.49 15.31L32.65 17.5L32.65 15.88L32.64 15.3L32.61 14.72L32.55 14.14L32.47 13.57L32.36 13.01L32.23 12.45L32.08 11.9L31.91 11.36L31.71 10.82L31.49 10.29L31.25 9.78L30.99 9.27L30.71 8.77L30.4 8.29L30.08 7.81L29.74 7.35L29.37 6.9L28.99 6.47L28.59 6.05L28.16 5.65L27.73 5.26L27.28 4.9L26.82 4.55L26.35 4.23L25.86 3.93L25.37 3.65L24.86 3.39L24.34 3.15L23.82 2.93L23.28 2.73L22.74 2.56L22.19 2.41L21.63 2.28L21.07 2.17L20.5 2.09L19.93 2.03L19.35 2L18.76 1.98L18.18 2L17.6 2.03L17.03 2.09L16.46 2.17L15.9 2.28L15.34 2.41L14.79 2.56L14.24 2.73L13.71 2.93L13.18 3.15L12.66 3.39L12.15 3.65L11.66 3.93L11.17 4.23L10.7 4.56L10.24 4.9L9.79 5.27L9.36 5.65L8.94 6.05L7.54 4.65L8.01 4.19L8.51 3.75L9.02 3.33L9.55 2.94L10.09 2.57L10.64 2.22L11.21 1.9L11.79 1.6L12.38 1.33L12.99 1.08L13.6 0.85L14.22 0.65L14.85 0.48L15.49 0.33L16.13 0.21L16.78 0.12L17.44 0.05L18.1 0.01L18.76 0L19.43 0.01L20.09 0.05ZM16.77 16.05L20.74 16.05L21.9 15.81L22.84 15.17L23.48 14.23L23.71 13.07L23.48 11.91L22.84 10.96L21.9 10.32L20.74 10.09L16.77 10.09L16.77 16.05Z" id="aiLSjFZS6"/><path d="M22.6 0.17L23.86 0.38L25.1 0.66L26.3 1.02L27.48 1.46L28.62 1.96L29.72 2.54L30.78 3.17L31.79 3.87L32.76 4.63L33.68 5.45L34.55 6.32L35.37 7.24L36.13 8.21L36.83 9.22L37.46 10.28L38.04 11.38L38.54 12.52L38.98 13.7L39.34 14.9L39.62 16.14L39.83 17.4L39.96 18.69L40 20L39.96 21.31L39.83 22.6L39.62 23.86L39.34 25.1L38.98 26.3L38.54 27.48L38.04 28.62L37.46 29.72L36.83 30.78L36.13 31.79L35.37 32.76L34.55 33.68L33.68 34.55L32.76 35.37L31.79 36.13L30.78 36.83L29.72 37.46L28.62 38.04L27.48 38.54L26.3 38.98L25.1 39.34L23.86 39.62L22.6 39.83L21.31 39.96L20 40L18.69 39.96L17.4 39.83L16.14 39.62L14.9 39.34L13.7 38.98L12.52 38.54L11.38 38.04L10.28 37.46L9.22 36.83L8.21 36.13L7.24 35.37L6.32 34.55L5.45 33.68L4.63 32.76L3.87 31.79L3.17 30.78L2.54 29.72L1.96 28.62L1.46 27.48L1.02 26.3L0.66 25.1L0.38 23.86L0.17 22.6L0.04 21.31L0 20L0.04 18.69L0.17 17.4L0.38 16.14L0.66 14.9L1.02 13.7L1.46 12.52L1.96 11.38L2.54 10.28L3.17 9.22L3.87 8.21L4.63 7.24L5.45 6.32L6.32 5.45L7.24 4.63L8.21 3.87L9.22 3.17L10.28 2.54L11.38 1.96L12.52 1.46L13.7 1.02L14.9 0.66L16.14 0.38L17.4 0.17L18.69 0.04L20 0L21.31 0.04L22.6 0.17ZM17.3 2.71L16 2.96L14.73 3.31L13.51 3.76L12.32 4.29L11.19 4.9L10.1 5.59L9.07 6.36L8.1 7.2L7.2 8.1L6.36 9.07L5.59 10.1L4.9 11.19L4.29 12.32L3.76 13.51L3.31 14.73L2.96 16L2.71 17.3L2.55 18.64L2.5 20L2.55 21.36L2.71 22.7L2.96 24L3.31 25.27L3.76 26.49L4.29 27.68L4.9 28.81L5.59 29.9L6.36 30.93L7.2 31.9L8.1 32.8L9.07 33.64L10.1 34.41L11.19 35.1L12.32 35.71L13.51 36.24L14.73 36.69L16 37.04L17.3 37.29L18.64 37.45L20 37.5L21.36 37.45L22.7 37.29L24 37.04L25.27 36.69L26.49 36.24L27.68 35.71L28.81 35.1L29.9 34.41L30.93 33.64L31.9 32.8L32.8 31.9L33.64 30.93L34.41 29.9L35.1 28.81L35.71 27.68L36.24 26.49L36.69 25.27L37.04 24L37.29 22.7L37.45 21.36L37.5 20L37.45 18.64L37.29 17.3L37.04 16L36.69 14.73L36.24 13.51L35.71 12.32L35.1 11.19L34.41 10.1L33.64 9.07L32.8 8.1L31.9 7.2L30.93 6.36L29.9 5.59L28.81 4.9L27.68 4.29L26.49 3.76L25.27 3.31L24 2.96L22.7 2.71L21.36 2.55L20 2.5L18.64 2.55L17.3 2.71ZM24.01 10.42L24.58 10.56L25.13 10.74L25.66 10.98L26.15 11.25L26.61 11.57L27.05 11.93L27.44 12.33L27.8 12.76L28.12 13.22L28.4 13.72L28.63 14.24L28.82 14.79L28.95 15.36L29.03 15.95L29.06 16.56L29.03 17.17L28.95 17.76L28.82 18.33L28.63 18.88L28.4 19.41L28.12 19.9L27.8 20.36L27.44 20.8L27.05 21.19L26.61 21.55L26.15 21.87L25.66 22.15L25.13 22.38L24.58 22.57L24.01 22.7L23.42 22.78L22.81 22.81L17.81 22.81L17.81 25.31L25.31 25.31L25.31 27.81L17.81 27.81L17.81 31.56L15.31 31.56L15.31 27.81L12.81 27.81L12.81 25.31L15.31 25.31L15.31 22.81L12.81 22.81L12.81 20.31L15.31 20.31L15.31 10.31L22.81 10.31L23.42 10.34L24.01 10.42ZM17.81 20.31L22.81 20.31L24.02 20.13L25.05 19.6L25.85 18.8L26.38 17.77L26.56 16.56L26.38 15.36L25.85 14.32L25.05 13.52L24.02 13L22.81 12.81L17.81 12.81L17.81 20.31Z" id="a4h9CkD4MC"/><path d="M23.53 16.78L22.81 17.89L21.89 18.82L20.77 19.54L19.51 19.99L18.13 20.14L16.75 19.99L15.49 19.54L14.37 18.82L13.43 17.89L12.72 16.78L12.27 15.52L12.11 14.14L12.11 12.14L24.14 12.14L24.14 14.14L23.98 15.52L23.53 16.78Z" id="b4C6esQJhv"/><path d="M29.23 6L35.56 12.3L34.16 13.7L29.84 9.41L29.84 28L5.74 28L5.74 9.39L1.4 13.7L0 12.3L6.32 6L9.74 6L9.74 -0.05L25.8 -0.05L25.8 6L29.23 6ZM7.73 26.02L27.85 26.02L27.85 7.99L7.73 7.99L7.73 26.02ZM11.73 5.97L23.81 5.97L23.81 1.94L11.73 1.94L11.73 5.97Z" id="a6P62GSq9b"/><path d="M14.42 15.7L15.28 16.98L16.56 17.85L18.13 18.16L19.69 17.85L20.97 16.98L21.84 15.7L22.16 14.14L22.16 14.12L14.1 14.12L14.1 14.14L14.42 15.7Z" id="jl1HR152B"/><path d="M25.71 5.33L25.71 0L28.57 0L28.57 5.33L40 5.33L40 40L0 40L0 5.33L11.43 5.33L11.43 0L14.29 0L14.29 5.33L25.71 5.33ZM2.86 37.33L37.14 37.33L37.14 16L2.86 16L2.86 37.33ZM2.86 13.33L37.14 13.33L37.14 8L28.57 8L28.57 10.67L25.71 10.67L25.71 8L14.29 8L14.29 10.67L11.43 10.67L11.43 8L2.86 8L2.86 13.33Z" id="b20BB0f6A9"/><path d="M21.15 0.07L21.75 0.15L22.34 0.26L22.92 0.4L23.48 0.57L24.03 0.77L24.57 1L25.1 1.26L25.6 1.54L26.09 1.84L26.57 2.17L27.03 2.52L27.46 2.9L27.88 3.3L28.28 3.71L28.65 4.15L29 4.61L29.33 5.08L29.64 5.57L29.92 6.08L30.17 6.6L30.4 7.14L30.6 7.69L30.77 8.26L30.92 8.84L31.03 9.43L31.11 10.02L31.16 10.63L31.18 11.25L31.18 12.12L31.36 12.24L31.55 12.37L31.72 12.52L31.9 12.67L32.06 12.83L32.22 13L32.38 13.19L32.53 13.38L32.68 13.59L32.82 13.81L32.95 14.04L33.08 14.28L33.2 14.53L33.32 14.79L33.44 15.06L33.55 15.34L33.65 15.64L33.75 15.94L33.84 16.26L33.92 16.58L34.01 16.92L34.08 17.27L34.15 17.63L34.22 18L34.28 18.38L34.33 18.77L34.38 19.18L34.43 19.59L34.47 20.01L34.5 20.45L40 25.95L40 30.53L36.97 33.5L29.2 25.72L29.16 25.73L29.11 25.74L29.07 25.75L29.03 25.76L28.98 25.77L28.94 25.78L28.89 25.79L28.85 25.79L28.81 25.8L28.76 25.81L28.72 25.82L28.67 25.82L28.63 25.83L28.59 25.84L28.54 25.84L28.5 25.85L28.45 25.85L28.41 25.86L28.36 25.86L28.32 25.87L28.28 25.87L28.23 25.88L28.19 25.88L28.14 25.88L28.1 25.89L28.05 25.89L28.01 25.89L27.96 25.9L27.92 25.9L27.88 25.9L27.81 26.03L27.74 26.15L27.67 26.28L27.6 26.4L27.52 26.52L27.45 26.64L27.37 26.76L27.29 26.88L27.2 26.99L27.12 27.1L27.03 27.21L26.94 27.32L26.85 27.43L26.75 27.54L26.66 27.64L26.56 27.75L26.46 27.85L26.36 27.95L26.26 28.04L26.15 28.14L26.04 28.23L25.93 28.32L25.82 28.41L25.71 28.5L25.6 28.58L25.48 28.67L25.36 28.75L25.24 28.82L25.12 28.9L25 28.97L25 36.78L21.78 40L17.5 40L17.5 29L17.37 28.92L17.25 28.84L17.12 28.76L17 28.67L16.88 28.59L16.76 28.5L16.64 28.41L16.53 28.31L16.42 28.22L16.31 28.12L16.2 28.02L16.09 27.92L15.99 27.81L15.88 27.7L15.78 27.6L15.68 27.49L15.59 27.37L15.49 27.26L15.4 27.14L15.31 27.02L15.23 26.9L15.14 26.78L15.06 26.66L14.98 26.53L14.9 26.41L14.83 26.28L14.75 26.15L14.68 26.02L14.62 25.88L14.55 25.75L14.43 25.78L14.3 25.81L14.18 25.84L14.06 25.86L13.93 25.88L13.81 25.9L13.68 25.92L13.56 25.94L13.43 25.95L13.3 25.96L13.18 25.97L13.05 25.98L12.93 25.98L12.8 25.99L12.68 25.99L12.55 25.99L12.42 25.98L12.3 25.98L12.17 25.97L12.05 25.96L11.92 25.95L11.79 25.94L11.67 25.92L11.54 25.9L11.42 25.88L11.29 25.86L11.17 25.84L11.05 25.81L10.92 25.78L10.8 25.75L3.03 33.55L0 30.53L0 25.95L5.5 20.45L5.42 20.13L5.35 19.81L5.3 19.49L5.26 19.17L5.24 18.86L5.23 18.54L5.23 18.22L5.24 17.9L5.27 17.59L5.31 17.28L5.37 16.97L5.44 16.66L5.52 16.36L5.61 16.06L5.72 15.76L5.83 15.47L5.96 15.19L6.11 14.91L6.26 14.64L6.42 14.37L6.6 14.11L6.79 13.85L6.99 13.61L7.2 13.37L7.42 13.14L7.65 12.92L7.89 12.7L8.14 12.5L8.4 12.31L8.68 12.13L8.68 11.25L8.69 10.63L8.74 10.02L8.82 9.43L8.93 8.84L9.08 8.26L9.25 7.69L9.45 7.14L9.68 6.6L9.93 6.08L10.21 5.57L10.52 5.08L10.85 4.61L11.2 4.15L11.57 3.71L11.97 3.3L12.39 2.9L12.82 2.52L13.28 2.17L13.76 1.84L14.25 1.54L14.75 1.26L15.28 1L15.82 0.77L16.37 0.57L16.93 0.4L17.51 0.26L18.1 0.15L18.7 0.07L19.31 0.02L19.93 0L20.54 0.02L21.15 0.07ZM18.92 18.17L18.51 18.41L18.12 18.69L17.76 19.01L17.43 19.36L17.14 19.74L16.88 20.15L16.67 20.59L16.38 21.45L16.26 22.32L16.28 23.18L16.46 24.02L16.77 24.81L17.21 25.54L17.78 26.19L18.46 26.74L19.25 27.17L20 27.5L20 37.6L20.73 37.6L22.5 35.82L22.5 27.5L23.25 27.07L23.47 26.96L23.69 26.83L23.9 26.69L24.11 26.54L24.3 26.38L24.49 26.21L24.67 26.03L24.84 25.85L25 25.65L23.92 25.23L22.93 24.65L22.06 23.94L21.32 23.11L20.7 22.18L20.24 21.17L19.93 20.09L19.79 18.96L19.83 17.8L19.36 17.96L18.92 18.17ZM26.58 13.68L26.33 13.71L26.08 13.77L25.83 13.83L25.58 13.91L25.34 14L24.73 14.29L24.17 14.66L23.68 15.09L23.25 15.57L22.9 16.11L22.61 16.68L22.39 17.28L22.26 17.91L22.21 18.55L22.24 19.2L22.36 19.86L22.57 20.5L22.87 21.12L23.23 21.67L23.66 22.16L24.15 22.59L24.68 22.95L25.25 23.24L25.85 23.45L26.48 23.58L27.12 23.64L27.78 23.61L28.43 23.49L29.07 23.27L29.37 23.16L29.44 23.13L29.83 22.97L36.97 30.1L37.5 29.57L37.5 26.97L31.53 21.2L31.83 20.45L31.98 19.98L32.09 19.51L32.15 19.03L32.16 18.55L32.13 18.08L32.06 17.61L31.94 17.15L31.78 16.7L31.57 16.27L31.32 15.85L31.03 15.46L30.7 15.1L30.53 14.95L30.39 15.35L30.25 15.74L30.08 16.13L29.91 16.5L29.72 16.88L29.52 17.24L29.3 17.6L29.07 17.95L28.83 18.29L28.57 18.62L28.31 18.94L28.03 19.25L28.01 19.26L28 19.27L27.99 19.29L27.98 19.3L27.97 19.31L27.96 19.32L27.95 19.33L27.94 19.34L27.93 19.35L27.91 19.37L27.9 19.38L27.89 19.39L27.75 19.49L27.61 19.57L27.46 19.63L27.3 19.67L27.14 19.69L26.98 19.69L26.82 19.67L26.67 19.63L26.52 19.57L26.38 19.48L26.25 19.38L26.13 19.26L26.02 19.13L25.94 18.98L25.88 18.83L25.84 18.68L25.82 18.52L25.82 18.36L25.84 18.2L25.89 18.04L25.95 17.89L26.03 17.75L26.13 17.62L26.25 17.5L26.5 17.23L26.73 16.96L26.95 16.67L27.16 16.38L27.36 16.08L27.55 15.77L27.72 15.45L27.88 15.13L28.02 14.8L28.15 14.46L28.27 14.12L28.38 13.77L28.12 13.72L27.87 13.68L27.61 13.65L27.35 13.64L27.1 13.64L26.84 13.65L26.58 13.68ZM11.6 13.7L10.99 13.9L10.18 14.29L9.47 14.81L8.87 15.43L8.4 16.14L8.05 16.92L7.84 17.75L7.77 18.61L7.85 19.48L8.1 20.35L8.4 21.1L2.5 26.97L2.5 29.47L3.03 30L10.05 22.85L10.8 23.15L11.12 23.26L11.44 23.35L11.77 23.41L12.1 23.46L12.43 23.48L12.76 23.47L13.09 23.45L13.42 23.4L13.75 23.32L13.75 23.23L13.74 23.14L13.74 23.05L13.74 22.96L13.74 22.87L13.74 22.77L13.74 22.68L13.75 22.59L13.75 22.5L13.8 21.67L13.94 20.86L14.17 20.07L14.48 19.32L14.87 18.61L15.34 17.94L15.87 17.33L16.48 16.77L17.15 16.27L17.07 16.12L16.99 15.97L16.91 15.82L16.81 15.67L16.72 15.53L16.61 15.39L16.51 15.26L16.39 15.13L16.27 15L15.79 14.58L15.26 14.23L14.69 13.95L14.1 13.75L13.49 13.62L12.86 13.57L12.23 13.6L11.6 13.7ZM16.97 3.04L15.61 3.68L14.4 4.53L13.34 5.57L12.48 6.78L11.82 8.13L11.41 9.59L11.25 11.15L12.07 11.03L12.9 11L13.71 11.06L14.52 11.21L15.29 11.45L16.04 11.77L16.76 12.17L17.43 12.64L18.05 13.2L18.24 13.4L18.42 13.61L18.59 13.83L18.75 14.05L18.9 14.28L19.05 14.52L19.18 14.76L19.31 15L19.42 15.25L19.56 15.22L19.69 15.19L19.82 15.16L19.95 15.14L20.09 15.11L20.22 15.09L20.36 15.08L20.49 15.06L20.63 15.05L20.74 14.83L20.87 14.6L21 14.39L21.14 14.18L21.29 13.97L21.45 13.77L21.61 13.58L21.78 13.38L21.95 13.2L22.57 12.64L23.24 12.17L23.96 11.77L24.71 11.45L25.48 11.21L26.29 11.06L27.1 11L27.93 11.03L28.75 11.15L28.59 9.59L28.18 8.13L27.52 6.78L26.66 5.57L25.6 4.53L24.39 3.68L23.03 3.04L21.56 2.64L20 2.5L18.44 2.64L16.97 3.04Z" id="c3zLVtnomY"/><path d="M31.92 0.01L32.13 0.03L32.34 0.06L32.54 0.09L32.74 0.13L32.95 0.17L33.15 0.23L33.34 0.29L33.54 0.35L33.73 0.43L33.92 0.51L34.11 0.6L34.3 0.69L34.49 0.8L34.67 0.91L34.85 1.02L35.03 1.15L35.2 1.28L35.37 1.42L35.54 1.56L35.71 1.72L35.88 1.88L38.13 4.13L38.28 4.27L38.44 4.43L38.58 4.59L38.72 4.75L38.85 4.92L38.98 5.1L39.09 5.28L39.2 5.46L39.31 5.65L39.4 5.83L39.49 6.03L39.57 6.22L39.65 6.42L39.71 6.62L39.77 6.83L39.83 7.03L39.87 7.24L39.91 7.45L39.94 7.65L39.97 7.87L39.99 8.08L40 8.29L40 8.5L40 8.73L39.99 8.95L39.97 9.17L39.94 9.39L39.91 9.61L39.87 9.82L39.83 10.03L39.77 10.24L39.71 10.44L39.65 10.64L39.57 10.84L39.49 11.03L39.4 11.23L39.31 11.42L39.2 11.6L39.09 11.79L38.98 11.97L38.85 12.15L38.72 12.33L38.58 12.5L38.44 12.67L38.28 12.84L38.13 13L15.25 35.88L2.5 40L0 37.5L4.13 24.75L27.13 1.88L27.27 1.72L27.43 1.56L27.59 1.42L27.75 1.28L27.92 1.15L28.1 1.02L28.28 0.91L28.46 0.8L28.65 0.69L28.83 0.6L29.03 0.51L29.22 0.43L29.42 0.35L29.62 0.29L29.83 0.23L30.03 0.17L30.24 0.13L30.45 0.09L30.65 0.06L30.87 0.03L31.08 0.01L31.29 0L31.5 0L31.71 0L31.92 0.01ZM3 37L3.13 37.13L14 33.63L33.75 13.88L26.13 6.25L6.5 26.13L3 37ZM29.69 2.97L28.75 3.63L28.69 3.69L28.39 3.98L28.16 4.21L27.88 4.5L35.5 12.13L35.98 11.65L36.15 11.47L36.28 11.34L36.38 11.25L36.78 10.77L37.1 10.25L37.32 9.68L37.46 9.1L37.5 8.5L37.45 7.92L37.31 7.36L37.07 6.84L36.72 6.34L36.25 5.88L34 3.63L33.06 2.97L31.95 2.63L30.8 2.63L29.69 2.97Z" id="a1V30wLOI"/></defs><symbol id="icon-autopay" viewBox="0 0 38 32" preserveAspectRatio="xMidYMid meet"><g><g><g><use xlink:href="#aiLSjFZS6" opacity="1" fill="#00b956" fill-opacity="1"/><g><use xlink:href="#aiLSjFZS6" opacity="1" fill-opacity="0" stroke="#000000" stroke-width="1" stroke-opacity="0"/></g></g></g></g></symbol><symbol id="icon-balance" viewBox="0 0 40 40" preserveAspectRatio="xMidYMid meet"><g><g><g><use xlink:href="#a4h9CkD4MC" opacity="1" fill="#00b956" fill-opacity="1"/><g><use xlink:href="#a4h9CkD4MC" opacity="1" fill-opacity="0" stroke="#000000" stroke-width="1" stroke-opacity="0"/></g></g></g></g></symbol><symbol id="icon-box" viewBox="0 0 36 28" preserveAspectRatio="xMidYMid meet"><g><g><g><use xlink:href="#b4C6esQJhv" opacity="1" fill="#00b956" fill-opacity="1"/><g><use xlink:href="#b4C6esQJhv" opacity="1" fill-opacity="0" stroke="#000000" stroke-width="1" stroke-opacity="0"/></g></g><g><use xlink:href="#a6P62GSq9b" opacity="1" fill="#00b956" fill-opacity="1"/><g><use xlink:href="#a6P62GSq9b" opacity="1" fill-opacity="0" stroke="#000000" stroke-width="1" stroke-opacity="0"/></g></g><g><use xlink:href="#jl1HR152B" opacity="1" fill="#ffffff" fill-opacity="1"/><g><use xlink:href="#jl1HR152B" opacity="1" fill-opacity="0" stroke="#000000" stroke-width="1" stroke-opacity="0"/></g></g></g></g></symbol><symbol id="icon-calendar" viewBox="0 0 40 40" preserveAspectRatio="xMidYMid meet"><g><g><g><use xlink:href="#b20BB0f6A9" opacity="1" fill="#00b956" fill-opacity="1"/><g><use xlink:href="#b20BB0f6A9" opacity="1" fill-opacity="0" stroke="#000000" stroke-width="1" stroke-opacity="0"/></g></g></g></g></symbol><symbol id="icon-keys" viewBox="0 0 40 40" preserveAspectRatio="xMidYMid meet"><g><g><g><use xlink:href="#c3zLVtnomY" opacity="1" fill="#00b956" fill-opacity="1"/><g><use xlink:href="#c3zLVtnomY" opacity="1" fill-opacity="0" stroke="#000000" stroke-width="1" stroke-opacity="0"/></g></g></g></g></symbol><symbol id="icon-pen" viewBox="0 0 40 40" preserveAspectRatio="xMidYMid meet"><g><g><g><use xlink:href="#a1V30wLOI" opacity="1" fill="#00b956" fill-opacity="1"/><g><use xlink:href="#a1V30wLOI" opacity="1" fill-opacity="0" stroke="#000000" stroke-width="1" stroke-opacity="0"/></g></g></g></g></symbol></svg>